<svg xmlns="http://www.w3.org/2000/svg" version="1.1" xmlns:xlink="http://www.w3.org/1999/xlink" xmlns:svgjs="http://svgjs.dev/svgjs" width="128" height="128" viewBox="0 0 128 128"><g transform="matrix(0.8046875,0,0,0.8046875,12.240725588541878,11.526587701612904)"><svg viewBox="0 0 152 155" data-background-color="#ffffff" preserveAspectRatio="xMidYMid meet" height="130" width="128" xmlns="http://www.w3.org/2000/svg" xmlns:xlink="http://www.w3.org/1999/xlink"><g id="tight-bounds" transform="matrix(1,0,0,1,0.38261854894790304,0.25)"><svg viewBox="0 0 151.23476290210417 154.5" height="154.5" width="151.23476290210417"><g><svg viewBox="0 0 151.23476290210417 154.5" height="154.5" width="151.23476290210417"><g><svg viewBox="0 0 151.23476290210417 154.5" height="154.5" width="151.23476290210417"><g id="textblocktransform"><svg viewBox="0 0 151.23476290210417 154.5" height="154.5" width="151.23476290210417" id="textblock"><g><svg viewBox="0 0 151.23476290210417 154.5" height="154.5" width="151.23476290210417"><g transform="matrix(1,0,0,1,0,0)"><svg width="151.23476290210417" viewBox="0.59 -37.84 38.371697038846996 39.21" height="154.5" data-palette-color="#d9bca9"><path d="M0.59-18.36L0.59-18.36 0.59-21.04Q0.83-24.46 2.08-27.28 3.32-30.1 5.24-32.03 7.15-33.96 9.67-35.29 12.18-36.62 14.93-37.23 17.68-37.84 20.61-37.84L20.61-37.84Q22.22-37.84 23.96-37.57 25.71-37.3 27.66-36.72 29.61-36.13 31.41-35 33.2-33.86 34.38-32.32L34.38-32.32Q36.79-29.37 37.88-26.14 38.96-22.9 38.96-18.95L38.96-18.95Q39.04-10.69 35.35-5.66L35.35-5.66 34.28-4.2Q32.86-2.25 30.22-0.94 27.59 0.37 24.95 0.87 22.31 1.37 19.63 1.37L19.63 1.37Q16.48 1.37 13.82 0.73 11.16 0.1 9.23-0.98 7.3-2.05 5.79-3.59 4.27-5.13 3.31-6.84 2.34-8.54 1.72-10.55 1.1-12.55 0.84-14.45 0.59-16.36 0.59-18.36ZM20.02-28.03L20.02-28.03Q19.02-28.03 18.23-27.56 17.43-27.1 16.93-26.44 16.43-25.78 16.06-24.67 15.7-23.56 15.53-22.67 15.36-21.78 15.26-20.42 15.16-19.07 15.15-18.32 15.14-17.58 15.14-16.41L15.14-16.41Q15.14-15.28 15.22-14.27 15.31-13.26 15.59-12.12 15.87-10.99 16.32-10.14 16.77-9.3 17.57-8.73 18.36-8.15 19.38-8.11L19.38-8.11Q20.46-8.11 21.29-8.46 22.12-8.81 22.68-9.36 23.24-9.91 23.63-10.84 24.02-11.77 24.23-12.62 24.44-13.48 24.55-14.75 24.66-16.02 24.68-16.93 24.71-17.85 24.71-19.24L24.71-19.24Q24.71-20.26 24.65-21.14 24.58-22.02 24.44-23.1 24.29-24.17 23.95-24.99 23.61-25.81 23.12-26.53 22.63-27.25 21.84-27.64 21.04-28.03 20.02-28.03Z" opacity="1" transform="matrix(1,0,0,1,0,0)" fill="#000000" class="wordmark-text-0" data-fill-palette-color="primary" id="text-0"></path></svg></g></svg></g></svg></g></svg></g></svg></g><defs></defs></svg><rect width="151.23476290210417" height="154.5" fill="none" stroke="none" visibility="hidden"></rect></g></svg></g></svg>